<svg xmlns="http://www.w3.org/2000/svg" xmlns:xlink="http://www.w3.org/1999/xlink" width="110" height="110" viewBox="0 0 110 110">
  <defs>
    <style>
      .cls-1 {
        filter: url(#filter);
      }

      .cls-2, .cls-3 {
        fill: #91d28b;
        fill-rule: evenodd;
      }

      .cls-2 {
        filter: url(#filter-2);
      }

      .cls-3 {
        filter: url(#filter-3);
      }
    </style>
    <filter id="filter" filterUnits="userSpaceOnUse">
      <feOffset result="offset" dy="1" in="SourceAlpha"/>
      <feGaussianBlur result="blur"/>
      <feFlood result="flood" flood-opacity="0.35"/>
      <feComposite result="composite" operator="in" in2="blur"/>
      <feBlend result="blend" in="SourceGraphic"/>
    </filter>
    <filter id="filter-2" x="11.875" y="0" width="86.281" height="58" filterUnits="userSpaceOnUse">
      <feOffset result="offset" dy="1" in="SourceAlpha"/>
      <feGaussianBlur result="blur"/>
      <feFlood result="flood" flood-opacity="0.35"/>
      <feComposite result="composite" operator="in" in2="blur"/>
      <feBlend result="blend" in="SourceGraphic"/>
    </filter>
    <filter id="filter-3" x="11.469" y="46" width="87.094" height="64" filterUnits="userSpaceOnUse">
      <feOffset result="offset" dy="1" in="SourceAlpha"/>
      <feGaussianBlur result="blur"/>
      <feFlood result="flood" flood-opacity="0.35"/>
      <feComposite result="composite" operator="in" in2="blur"/>
      <feBlend result="blend" in="SourceGraphic"/>
    </filter>
  </defs>
  <g class="cls-1">
    <path id="B" class="cls-2" d="M65.351,1.333a21,21,0,0,0-6.4,3.635,20.071,20.071,0,0,0-4.5,5.369,20.92,20.92,0,0,0-2.434,6.6,19.039,19.039,0,0,0-3.068-4.968,17.621,17.621,0,0,0-4.235-3.6A19.433,19.433,0,0,0,39.542,6.2a23.086,23.086,0,0,0-5.869-.734,24.1,24.1,0,0,0-9.2,1.667A17.656,17.656,0,0,0,17.6,12.1a22.431,22.431,0,0,0-4.268,8.236,45.5,45.5,0,0,0-1.467,12.671V52.619a4.729,4.729,0,0,0,1.034,2.9q1.035,1.368,3.635,1.367H93.495q2.6,0,3.635-1.367a4.723,4.723,0,0,0,1.034-2.9V30.077a47.634,47.634,0,0,0-.7-8.636,33.918,33.918,0,0,0-2.1-7.069,26.008,26.008,0,0,0-3.468-5.935,21.438,21.438,0,0,0-4.8-4.5,22.227,22.227,0,0,0-6.169-2.9A25.947,25.947,0,0,0,73.421,0,23.467,23.467,0,0,0,65.351,1.333ZM40.242,18.1a12.155,12.155,0,0,1,4.6,2.628,12.881,12.881,0,0,1,3.134,4.525,18.518,18.518,0,0,1,1.167,7.186v13.04H21.2V33.64a27.366,27.366,0,0,1,.934-7.917,12.23,12.23,0,0,1,2.7-4.857,10.514,10.514,0,0,1,4.3-2.728,17.491,17.491,0,0,1,5.669-.865A17.95,17.95,0,0,1,40.242,18.1Zm40.181-4.768a12.75,12.75,0,0,1,4.568,3.494,15.375,15.375,0,0,1,2.768,5.158,22.608,22.608,0,0,1,.934,6.856V45.483H58.282V31.772a32.706,32.706,0,0,1,1.034-8.951A15.9,15.9,0,0,1,62.35,16.9,12.911,12.911,0,0,1,67.285,13.3a17.471,17.471,0,0,1,6.8-1.232A14.946,14.946,0,0,1,80.423,13.336Z"/>
    <path id="H" class="cls-3" d="M13.6,46.013a1.65,1.65,0,0,0-.934.267,1.791,1.791,0,0,0-.633.934,10.169,10.169,0,0,0-.4,1.767,18.544,18.544,0,0,0-.167,2.7,18.962,18.962,0,0,0,.167,2.8,10.166,10.166,0,0,0,.4,1.734,1.782,1.782,0,0,0,.633.934,1.642,1.642,0,0,0,.934.267H48.145V96.7H13.6a1.65,1.65,0,0,0-.934.267,1.791,1.791,0,0,0-.633.934,10.172,10.172,0,0,0-.4,1.767,22.78,22.78,0,0,0,0,5.5,10.126,10.126,0,0,0,.4,1.8,1.786,1.786,0,0,0,.633.934,1.643,1.643,0,0,0,.934.266h82.83a1.641,1.641,0,0,0,.934-0.266A1.78,1.78,0,0,0,98,106.968a10.04,10.04,0,0,0,.4-1.8,22.78,22.78,0,0,0,0-5.5A10.081,10.081,0,0,0,98,97.9a1.784,1.784,0,0,0-.634-0.934,1.647,1.647,0,0,0-.934-0.267H58.148V57.417H96.429a1.64,1.64,0,0,0,.934-0.267A1.776,1.776,0,0,0,98,56.216a10.072,10.072,0,0,0,.4-1.734,18.948,18.948,0,0,0,.167-2.8,18.53,18.53,0,0,0-.167-2.7,10.079,10.079,0,0,0-.4-1.767,1.785,1.785,0,0,0-.634-0.934,1.648,1.648,0,0,0-.934-0.267H13.6Z"/>
  </g>
</svg>
